<?xml version="1.0" encoding="UTF-8" standalone="no"?>
<svg width="59px" height="30px" viewBox="0 0 59 30" version="1.1" xmlns="http://www.w3.org/2000/svg" xmlns:xlink="http://www.w3.org/1999/xlink" xmlns:sketch="http://www.bohemiancoding.com/sketch/ns">
    <g id="Page-1" stroke="none" stroke-width="1" fill="none" fill-rule="evenodd" sketch:type="MSPage">
        <g id="rez-web-large" sketch:type="MSArtboardGroup" transform="translate(-31.000000, -41.000000)" fill="#000000">
            <path d="M43.99892,50.2166735 C43.99892,52.5303343 42.1168168,54.4125739 39.8035989,54.4125739 L36.0206843,54.4125739 L36.0206843,46.0213234 L39.8035989,46.0213234 C42.1168168,46.0213234 43.99892,47.9032879 43.99892,50.2166735 L43.99892,50.2166735 Z M44.4575468,58.0782776 C47.2717602,56.4167011 49.0198794,53.4047324 49.0198794,50.2166735 C49.0198794,45.1348191 44.8853601,41 39.8035989,41 L31.9854836,41 C31.2269749,41 31,41.2275416 31,41.9861054 L31,70.0031641 C31,70.7617279 31.2269749,70.9892695 31.9854836,70.9892695 L35.0354758,70.9892695 C35.7939845,70.9892695 36.0206843,70.7617279 36.0206843,70.0031641 L36.0206843,59.4338974 L38.4004815,59.4338974 C38.558401,59.4338974 38.6159013,59.4713165 38.6877079,59.6149402 L43.7411316,70.2125464 C44.0041473,70.7383409 44.0599969,70.9892695 45.0559351,70.9892695 L48.1408676,70.9892695 C48.8952496,70.9892695 49.1629424,70.8902187 49.3332423,70.681937 C49.4754799,70.5080479 49.4732789,70.283808 49.2355743,69.7742468 L43.9683816,58.9262622 C43.8000075,58.5897648 43.7493852,58.4882377 44.4575468,58.0782776 Z M67.356148,65.9679461 L57.1997789,65.9679461 L57.1997789,58.1957628 L66.8193868,58.1957628 C67.5778956,58.1957628 67.8051456,57.9684964 67.8051456,57.2099326 L67.8051456,54.1602696 C67.8051456,53.4017059 67.5778956,53.1744394 66.8193868,53.1744394 L57.1997789,53.1744394 L57.1997789,46.0213234 L67.2736117,46.0213234 C68.0321205,46.0213234 68.2590954,45.794057 68.2590954,45.0354932 L68.2590954,41.9858302 C68.2590954,41.2272665 68.0321205,41 67.2736117,41 L53.1645782,41 C52.4060695,41 52.1788195,41.2272665 52.1788195,41.9858302 L52.1788195,70.0034393 C52.1788195,70.762003 52.4060695,70.9892695 53.1645782,70.9892695 L67.356148,70.9892695 C68.1143817,70.9892695 68.3416317,70.762003 68.3416317,70.0034393 L68.3416317,66.9537763 C68.3416317,66.1954877 68.1143817,65.9679461 67.356148,65.9679461 Z M87.7090541,41.0110056 L72.5776707,41.0110056 C71.8191619,41.0110056 71.5919119,41.2382721 71.5919119,41.9968359 L71.5919119,45.0357683 C71.5919119,45.7943321 71.819437,46.0213234 72.5776707,46.0213234 L83.347835,46.0213234 L71.6799507,65.0354932 C71.5575218,65.2390975 71.3952004,65.5585362 71.3952004,65.9789517 L71.3952004,70.0144449 C71.3952004,70.7730087 71.6224504,71 72.3809591,71 L88.5115822,71 C89.270091,71 89.4970659,70.7727335 89.4970659,70.0141698 L89.4970659,66.9535012 C89.4970659,66.1949374 89.2698159,65.9679461 88.5113071,65.9679461 L88.1214605,65.9682212 L77.2720614,65.9682212 L88.7999091,46.851699 C88.9220628,46.6480946 89.0846594,46.3286559 89.0846594,45.9082405 L89.0846594,41.9965607 C89.0846594,41.237997 88.8574094,41.0110056 88.0989006,41.0110056 L87.7090541,41.0110056 Z" id="Fill-1" sketch:type="MSShapeGroup"></path>
        </g>
    </g>
</svg>
